<svg xmlns="http://www.w3.org/2000/svg" xmlns:xlink="http://www.w3.org/1999/xlink" width="512" height="512" version="1.1" viewBox="0 0 512 512" style="zoom:1"><title>logo-white-with-bg</title><desc>Created with Sketch.</desc><g id="logo-white-with-bg" fill="none" fill-rule="evenodd" stroke="none" stroke-width="1"><rect width="512" height="512" x="0" y="0" fill="#111"/><path id="Line" stroke="#FFF" stroke-linecap="square" stroke-width="22" d="M160.5,199.5 L160.5,319.5"/><path id="Line" stroke="#FFF" stroke-linecap="square" stroke-width="22" d="M160.5,199.5 L160.5,319.5" transform="translate(160.500000, 259.500000) rotate(60.000000) translate(-160.500000, -259.500000)"/><path id="Line" stroke="#FFF" stroke-linecap="square" stroke-width="22" d="M160.5,199.5 L160.5,319.5" transform="translate(160.500000, 259.500000) rotate(-60.000000) translate(-160.500000, -259.500000)"/><path id="Line" stroke="#FFF" stroke-linecap="square" stroke-width="22" d="M348.5,206.5 L348.5,256.5" transform="translate(348.500000, 231.500000) scale(1, -1) translate(-348.500000, -231.500000)"/><path id="Line" stroke="#FFF" stroke-linecap="square" stroke-width="22" d="M385.739092,271 L385.739092,321" transform="translate(385.739092, 296.000000) scale(-1, 1) rotate(60.000000) translate(-385.739092, -296.000000)"/><path id="Line" stroke="#FFF" stroke-linecap="square" stroke-width="22" d="M311.260908,271 L311.260908,321" transform="translate(311.260908, 296.000000) scale(-1, 1) rotate(-60.000000) translate(-311.260908, -296.000000)"/></g></svg>