<svg xmlns="http://www.w3.org/2000/svg" xmlns:xlink="http://www.w3.org/1999/xlink" id="Layer_1" x="0" y="0" version="1.1" viewBox="0 0 300 300" style="enable-background:new 0 0 300 300" xml:space="preserve"><style type="text/css">.st0{fill:#000563}.st1{fill:#75e6da}.st2{fill:#fff}</style><g><ellipse cx="150" cy="150" class="st0" rx="140.09" ry="140.09" transform="matrix(0.7071 -0.7071 0.7071 0.7071 -62.132 150)"/><path d="M150,11.41c37.02,0,71.82,14.42,98,40.59c26.18,26.18,40.59,60.98,40.59,98s-14.42,71.82-40.59,98 c-26.18,26.18-60.98,40.59-98,40.59S78.18,274.18,52,248s-40.59-60.98-40.59-98S25.82,78.18,52,52 C78.18,25.82,112.98,11.41,150,11.41 M150,8.41C71.8,8.41,8.41,71.8,8.41,150S71.8,291.59,150,291.59S291.59,228.2,291.59,150 S228.2,8.41,150,8.41L150,8.41z" class="st1"/></g><g><path d="M232.45,89.66c3.35,0,6.09-2.74,6.09-6.09v-0.03c0-3.35-2.74-6.09-6.09-6.09H67.53 c-3.35,0-6.09,2.74-6.09,6.09v0.03c0,3.35,2.74,6.09,6.09,6.09h76.34v127.33c0,3.05,2.5,5.55,5.55,5.55h1.21 c3.05,0,5.55-2.5,5.55-5.55V89.66H232.45z" class="st2"/><path d="M125.19,101.89H67.07c-3.36,0-6.1,2.75-6.1,6.1v0c0,3.36,2.75,6.1,6.1,6.1h51.26v41.53H73.38 c-3.19,0-5.81,2.61-5.81,5.81v0.59c0,3.19,2.61,5.81,5.81,5.81h44.95v42.37H67.41c-3.35,0-6.09,2.74-6.09,6.09v0.03 c0,3.35,2.74,6.09,6.09,6.09h57.8c2.33,0,4.37-1.33,5.39-3.27c0.65-1.02,1.03-2.23,1.03-3.52V108.67c0-1.38-0.43-2.66-1.16-3.73 C129.4,103.13,127.43,101.89,125.19,101.89z" class="st2"/><path d="M232.93,114.1c3.36,0,6.1-2.75,6.1-6.1v0c0-3.36-2.75-6.1-6.1-6.1h-58.12c-2.25,0-4.21,1.23-5.27,3.05 c-0.73,1.06-1.16,2.35-1.16,3.73v106.93c0,1.29,0.38,2.5,1.03,3.52c1.02,1.94,3.05,3.27,5.39,3.27h57.8c3.35,0,6.09-2.74,6.09-6.09 v-0.03c0-3.35-2.74-6.09-6.09-6.09h-50.92v-42.37h44.95c3.19,0,5.81-2.61,5.81-5.81v-0.59c0-3.19-2.61-5.81-5.81-5.81h-44.95V114.1 H232.93z" class="st2"/></g></svg>