<svg xmlns="http://www.w3.org/2000/svg" xmlns:svg="http://www.w3.org/2000/svg" id="svg1237" width="500" height="500" version="1.1" viewBox="0 0 132.292 132.292"><metadata id="metadata1234"/><g id="layer1" transform="translate(-66.145836,-66.145836)"><path d="M 198.43751,132.29167 A 66.145836,66.145836 0 0 1 132.29167,198.43751 66.145836,66.145836 0 0 1 66.145836,132.29167 66.145836,66.145836 0 0 1 132.29167,66.145836 66.145836,66.145836 0 0 1 198.43751,132.29167 Z" style="fill:#231f20;fill-opacity:1;stroke:none;stroke-width:.57163;stroke-opacity:1" id="path845"/><g id="g1834" transform="translate(-1.8720778,40.71716)"><path d="m 168.34531,58.19922 -29.71538,9.723097 a 17.521244,17.521244 0 0 0 -10.17254,8.717257 l -13.63198,26.836146 a 10.907927,10.907927 0 0 1 -4.34571,4.54909 l -12.840327,7.27921 a 6.1044908,6.1044908 0 0 0 -3.093944,5.31049 v 0 a 4.5445989,4.5445989 0 0 0 7.051901,3.79035 l 15.51366,-10.26228 a 11.795232,11.795232 0 0 0 4.03076,-4.53943 L 134.18227,83.6649 a 17.656454,17.656454 0 0 1 10.54462,-8.933045 l 25.61079,-7.943227 a 4.8941792,4.8941792 0 0 0 3.44438,-4.674519 4.1374683,4.1374683 0 0 0 -5.43675,-3.914889 z M 94.545429,76.931052 a 3.9139513,3.9139513 0 0 0 4.430149,3.318398 h 5.794792 a 6.8104403,6.8104403 0 0 1 4.96881,2.152883 l 6.69934,7.147071 4.06602,-7.556307 -5.95502,-7.118557 a 6.6236024,6.6236024 0 0 0 -5.08034,-2.373659 H 98.975578 a 4.4301517,4.4301517 0 0 0 -4.430149,4.430171 z m 38.358101,19.593053 -3.87468,7.748565 10.85658,13.17114 a 12.251458,12.251458 0 0 0 9.45383,4.45894 h 21.07201 a 3.3707675,3.3707675 0 0 0 3.37079,-3.37076 3.874104,3.874104 0 0 0 -3.94862,-3.79814 h -17.38725 a 10.087613,10.087613 0 0 1 -7.84349,-3.74412 z" style="fill:#fff;stroke-width:.99582398" id="path1130-2"/></g></g></svg>