<svg xmlns="http://www.w3.org/2000/svg" xmlns:xlink="http://www.w3.org/1999/xlink" id="Laag_1" x="0" y="0" version="1.1" viewBox="0 0 300 300" style="enable-background:new 0 0 300 300" xml:space="preserve"><style type="text/css">.st0{fill:url(#SVGID_1_)}.st1{fill:url(#SVGID_2_)}</style><linearGradient id="SVGID_1_" x1="4.844" x2="218.831" y1="150.422" y2="150.422" gradientUnits="userSpaceOnUse"><stop offset="0" style="stop-color:#e94081"/><stop offset=".217" style="stop-color:#e63f81"/><stop offset=".437" style="stop-color:#df3d82"/><stop offset=".658" style="stop-color:#d23983"/><stop offset=".878" style="stop-color:#c03384"/><stop offset="1" style="stop-color:#b33085"/></linearGradient><path d="M4.8,276.1c0-54.7,0-108.7,0-163.2C6.5,114,48.8,149,55,154c1.3,1,2.4,0.9,3.5-0.3	c5.1-5.3,121-123.7,124.8-127.7c1.9-2,2.7-1.9,5.7,1.1c4.6,4.5,26.6,27.2,29.8,30.5C147.7,130.3,76.5,203,4.8,276.1z" class="st0"/><linearGradient id="SVGID_2_" x1="-1176.662" x2="-1385.387" y1="660.406" y2="660.406" gradientTransform="matrix(-1 0 0 -1 -1089.5677 811.5134)" gradientUnits="userSpaceOnUse"><stop offset=".07" style="stop-color:#e94081"/><stop offset=".081" style="stop-color:#e84081"/><stop offset=".35" style="stop-color:#d13984"/><stop offset=".6" style="stop-color:#c13486"/><stop offset=".825" style="stop-color:#b63187"/><stop offset="1" style="stop-color:#b23087"/></linearGradient><path d="M295.8,27.9c0,54.7-0.3,109.7-0.3,164.2c-1.6-1.2-38.4-42-44.7-47.1c-1.3-1-2.4-0.9-3.5,0.3	c-5.1,5.3-121,123.7-124.8,127.7c-1.9,2-2.7,1.9-5.7-1.1c-4.6-4.5-26.6-27.2-29.8-30.5C158.3,168.8,224.2,101,295.8,27.9z" class="st1"/></svg>