<svg xmlns="http://www.w3.org/2000/svg" xmlns:xlink="http://www.w3.org/1999/xlink" width="512" height="512" version="1.1" viewBox="0 0 512 512"><title>logo@2x</title><defs><linearGradient id="linearGradient-1" x1="0%" x2="100%" y1="23.393%" y2="72.024%"><stop offset="0%" stop-color="#333"/><stop offset="100%" stop-color="#393939"/></linearGradient></defs><g id="logo" fill="none" fill-rule="evenodd" stroke="none" stroke-width="1"><rect id="Rectangle" width="512" height="512" x="0" y="0" fill="url(#linearGradient-1)"/><path id="Fill-64" fill="#FFF" d="M315.211977,361.327767 L258.116297,394.202463 C255.43626,395.746387 252.132246,395.746387 249.448801,394.202463 L140.470895,331.452499 C137.303269,329.629717 135.356322,326.25961 135.356322,322.614045 L135.356322,195.417161 C135.356322,193.373332 136.447431,191.492737 138.220483,190.469123 L198.869086,155.543796 C200.345493,154.697018 202.186739,155.758041 202.186739,157.454997 L202.186739,288.481084 C202.186739,290.912594 203.482431,293.157065 205.596454,294.374521 L315.211977,357.491762 C316.691793,358.345341 316.691793,360.474187 315.211977,361.327767 L315.211977,361.327767 Z M420,175.178094 C420,166.640746 415.442404,158.751976 408.042289,154.485009 L268.041415,73.723267 C260.590053,69.4255777 251.409947,69.4255777 243.965418,73.723267 L103.957711,154.485009 C96.557596,158.75539 92,166.640746 92,175.178094 L92,336.797158 C92,345.331093 96.557596,353.223275 103.957711,357.490242 L244.043998,438.299775 C251.440696,442.566742 260.559304,442.566742 267.959419,438.299775 L408.042289,357.490242 C415.442404,353.223275 420,345.331093 420,336.797158 L420,175.178094 Z"/></g></svg>